<?xml version="1.0" encoding="UTF-8" standalone="no"?>
<!-- Created with Inkscape (http://www.inkscape.org/) -->

<svg
   xmlns:dc="http://purl.org/dc/elements/1.1/"
   xmlns:cc="http://creativecommons.org/ns#"
   xmlns:rdf="http://www.w3.org/1999/02/22-rdf-syntax-ns#"
   xmlns:svg="http://www.w3.org/2000/svg"
   xmlns="http://www.w3.org/2000/svg"
   xmlns:sodipodi="http://sodipodi.sourceforge.net/DTD/sodipodi-0.dtd"
   xmlns:inkscape="http://www.inkscape.org/namespaces/inkscape"
   width="744.09448819"
   height="1052.3622047"
   id="svg2"
   version="1.1"
   inkscape:version="0.48.4 r9939"
   sodipodi:docname="New document 1">
  <defs
     id="defs4" />
  <sodipodi:namedview
     id="base"
     pagecolor="#ffffff"
     bordercolor="#666666"
     borderopacity="1.0"
     inkscape:pageopacity="0.0"
     inkscape:pageshadow="2"
     inkscape:zoom="0.49497475"
     inkscape:cx="297.7463"
     inkscape:cy="861.06127"
     inkscape:document-units="px"
     inkscape:current-layer="layer1"
     showgrid="false"
     inkscape:window-width="1280"
     inkscape:window-height="962"
     inkscape:window-x="-8"
     inkscape:window-y="-8"
     inkscape:window-maximized="1" />
  <metadata
     id="metadata7">
    <rdf:RDF>
      <cc:Work
         rdf:about="">
        <dc:format>image/svg+xml</dc:format>
        <dc:type
           rdf:resource="http://purl.org/dc/dcmitype/StillImage" />
        <dc:title></dc:title>
      </cc:Work>
    </rdf:RDF>
  </metadata>
  <g
     inkscape:label="Layer 1"
     inkscape:groupmode="layer"
     id="layer1">
    <g
       id="g3870"
       transform="matrix(2.6760686,0,0,2.6760686,-789.39462,-808.098)">
      <g
         style="fill:#2ad4ff"
         transform="translate(1.4712171,0)"
         id="g3840">
        <g
           style="fill:#2ad4ff"
           id="g3830"
           transform="matrix(0.96265766,-0.2707217,0.2707217,0.96265766,-41.656604,149.86803)">
          <path
             d="m 299.16977,306.55173 0,8.77427 -3.23641,0 0,8.53453 -9.73321,0 0,-20.30547 c 0,-3.81974 1.17869,-6.98024 3.53608,-9.48149 2.35738,-2.50119 5.32608,-3.7518 8.90612,-3.75184 3.9476,4e-5 7.24794,1.70215 9.90102,5.10634 l -7.98315,5.82554 c -0.44752,-1.2466 -1.23864,-1.8699 -2.37336,-1.86993 -1.50235,3e-5 -2.25352,1.03887 -2.2535,3.11655 l 0,4.0515 z"
             style="font-size:49.09754562px;font-style:normal;font-variant:normal;font-weight:normal;font-stretch:normal;text-align:center;line-height:125%;letter-spacing:0px;word-spacing:0px;text-anchor:middle;fill:#2ad4ff;fill-opacity:1;stroke:none;font-family:Bauhaus 93;-inkscape-font-specification:Bauhaus 93"
             id="path3780"
             inkscape:connector-curvature="0" />
          <path
             d="m 322.99934,299.71931 0,9.58936 c -0.62333,-0.35159 -1.1907,-0.5274 -1.70212,-0.52741 -1.6302,1e-5 -2.4453,1.24663 -2.44528,3.73985 l 0,11.33942 -8.96606,0 0,-13.0655 c 0,-3.45216 0.94295,-6.2051 2.82886,-8.25884 1.8859,-2.0537 4.40311,-3.08056 7.55163,-3.08059 0.7032,3e-5 1.61419,0.0879 2.73297,0.26371 z"
             style="font-size:49.09754562px;font-style:normal;font-variant:normal;font-weight:normal;font-stretch:normal;text-align:center;line-height:125%;letter-spacing:0px;word-spacing:0px;text-anchor:middle;fill:#2ad4ff;fill-opacity:1;stroke:none;font-family:Bauhaus 93;-inkscape-font-specification:Bauhaus 93"
             id="path3782"
             inkscape:connector-curvature="0" />
          <path
             d="m 336.95186,299.4556 c 3.38823,3e-5 6.293,1.21867 8.71434,3.65595 2.42129,2.43731 3.63194,5.35807 3.63197,8.76228 -3e-5,3.45218 -1.22667,6.39291 -3.67992,8.82221 -2.4533,2.42931 -5.41401,3.64396 -8.88215,3.64396 -3.46816,0 -6.43287,-1.21864 -8.89413,-3.65594 -2.46128,-2.43729 -3.69191,-5.37403 -3.69191,-8.81023 0,-3.5001 1.23063,-6.44483 3.69191,-8.8342 2.46126,-2.38933 5.49789,-3.584 9.10989,-3.58403 z m -0.23973,8.84619 c -0.95895,2e-5 -1.77405,0.34763 -2.44529,1.04284 -0.67127,0.69525 -1.00689,1.5463 -1.00688,2.55317 -10e-6,0.99091 0.33961,1.83797 1.01887,2.54118 0.67923,0.70323 1.49033,1.05484 2.4333,1.05483 0.95892,1e-5 1.77801,-0.3516 2.45727,-1.05483 0.67923,-0.70321 1.01886,-1.55027 1.01887,-2.54118 -10e-6,-1.00687 -0.33564,-1.85792 -1.00688,-2.55317 -0.67127,-0.69521 -1.49436,-1.04282 -2.46926,-1.04284 z"
             style="font-size:49.09754562px;font-style:normal;font-variant:normal;font-weight:normal;font-stretch:normal;text-align:center;line-height:125%;letter-spacing:0px;word-spacing:0px;text-anchor:middle;fill:#2ad4ff;fill-opacity:1;stroke:none;font-family:Bauhaus 93;-inkscape-font-specification:Bauhaus 93"
             id="path3784"
             inkscape:connector-curvature="0" />
          <path
             d="m 374.35038,323.86053 -8.96605,0 0,-13.49703 c -2e-5,-1.37446 -0.56739,-2.06169 -1.70212,-2.06171 -1.11877,2e-5 -1.67815,0.68725 -1.67814,2.06171 l 0,13.49703 -8.96605,0 0,-13.32921 c 0,-3.11653 1.03085,-5.74161 3.09257,-7.87527 2.0617,-2.13361 4.5869,-3.20042 7.5756,-3.20045 3.42019,3e-5 6.16114,1.23865 8.22288,3.71588 1.61418,1.93387 2.42129,4.62689 2.42131,8.07904 z"
             style="font-size:49.09754562px;font-style:normal;font-variant:normal;font-weight:normal;font-stretch:normal;text-align:center;line-height:125%;letter-spacing:0px;word-spacing:0px;text-anchor:middle;fill:#2ad4ff;fill-opacity:1;stroke:none;font-family:Bauhaus 93;-inkscape-font-specification:Bauhaus 93"
             id="path3786"
             inkscape:connector-curvature="0" />
          <path
             d="m 387.58371,291.13683 0,9.15784 4.02753,0 0,9.4695 -4.02753,0 c -10e-6,1.9019 0.29966,3.21245 0.899,3.93164 0.59933,0.71921 1.69811,1.07881 3.29635,1.0788 l 0,9.42155 c -0.4635,0.016 -0.80712,0.024 -1.03086,0.024 -2.02976,0 -3.94364,-0.47148 -5.74163,-1.41444 -1.79801,-0.94295 -3.24041,-2.22153 -4.3272,-3.83574 -1.37448,-2.06171 -2.06172,-4.79467 -2.06172,-8.19891 l 0,-19.63422 z"
             style="font-size:49.09754562px;font-style:normal;font-variant:normal;font-weight:normal;font-stretch:normal;text-align:center;line-height:125%;letter-spacing:0px;word-spacing:0px;text-anchor:middle;fill:#2ad4ff;fill-opacity:1;stroke:none;font-family:Bauhaus 93;-inkscape-font-specification:Bauhaus 93"
             id="path3788"
             inkscape:connector-curvature="0" />
          <path
             d="m 404.96443,299.95904 0,23.90149 -8.96605,0 0,-23.90149 z m -4.45905,-10.66816 c 1.21464,3e-5 2.26548,0.42756 3.1525,1.28257 0.88701,0.85509 1.33051,1.86597 1.33053,3.03264 -2e-5,1.24665 -0.41955,2.26951 -1.25861,3.0686 -0.83908,0.79914 -1.91388,1.19869 -3.22442,1.19867 -1.31055,2e-5 -2.38536,-0.39953 -3.22443,-1.19867 -0.83907,-0.79909 -1.2586,-1.82195 -1.2586,-3.0686 0,-1.16667 0.4435,-2.17755 1.33052,-3.03264 0.88702,-0.85501 1.93785,-1.28254 3.15251,-1.28257 z"
             style="font-size:49.09754562px;font-style:normal;font-variant:normal;font-weight:normal;font-stretch:normal;text-align:center;line-height:125%;letter-spacing:0px;word-spacing:0px;text-anchor:middle;fill:#2ad4ff;fill-opacity:1;stroke:none;font-family:Bauhaus 93;-inkscape-font-specification:Bauhaus 93"
             id="path3790"
             inkscape:connector-curvature="0" />
          <path
             d="m 433.78047,313.36018 -13.59292,0 c -0.20778,-0.68723 -0.31167,-1.31853 -0.31165,-1.8939 -2e-5,-0.7991 0.14382,-1.58223 0.43152,-2.34939 l 4.55494,0 c -0.31966,-1.77402 -1.31855,-2.66103 -2.99667,-2.66105 -1.11877,2e-5 -2.02976,0.47549 -2.73297,1.42642 -0.70323,0.95096 -1.05484,2.1696 -1.05483,3.65594 -1e-5,1.55029 0.33961,2.8049 1.01887,3.76383 0.67923,0.95894 1.57024,1.43841 2.67303,1.4384 0.895,10e-6 1.75804,-0.44749 2.58913,-1.34251 l 5.10634,6.13719 c -2.38138,1.86993 -5.02644,2.80489 -7.9352,2.80489 -3.54807,0 -6.52877,-1.19068 -8.94208,-3.57204 -2.41333,-2.38135 -3.61999,-5.33008 -3.61999,-8.84618 0,-3.50011 1.21865,-6.45682 3.65595,-8.87017 2.43729,-2.4133 5.42997,-3.61996 8.97804,-3.61998 3.46814,2e-5 6.3809,1.17871 8.73831,3.53608 2.35736,2.3574 3.53605,5.26218 3.53608,8.71433 -3e-5,0.35162 -0.032,0.911 -0.0959,1.67814 z"
             style="font-size:49.09754562px;font-style:normal;font-variant:normal;font-weight:normal;font-stretch:normal;text-align:center;line-height:125%;letter-spacing:0px;word-spacing:0px;text-anchor:middle;fill:#2ad4ff;fill-opacity:1;stroke:none;font-family:Bauhaus 93;-inkscape-font-specification:Bauhaus 93"
             id="path3792"
             inkscape:connector-curvature="0" />
          <path
             d="m 450.63378,299.71931 0,9.58936 c -0.62332,-0.35159 -1.19069,-0.5274 -1.70211,-0.52741 -1.6302,1e-5 -2.4453,1.24663 -2.44529,3.73985 l 0,11.33942 -8.96605,0 0,-13.0655 c -10e-6,-3.45216 0.94295,-6.2051 2.82886,-8.25884 1.8859,-2.0537 4.4031,-3.08056 7.55162,-3.08059 0.70321,3e-5 1.6142,0.0879 2.73297,0.26371 z"
             style="font-size:49.09754562px;font-style:normal;font-variant:normal;font-weight:normal;font-stretch:normal;text-align:center;line-height:125%;letter-spacing:0px;word-spacing:0px;text-anchor:middle;fill:#2ad4ff;fill-opacity:1;stroke:none;font-family:Bauhaus 93;-inkscape-font-specification:Bauhaus 93"
             id="path3794"
             inkscape:connector-curvature="0" />
        </g>
        <g
           style="fill:#2ad4ff"
           id="g3822"
           transform="matrix(0.99150847,-0.13004218,0.13004218,0.99150847,44.788726,65.979928)">
          <path
             d="m 298.09096,352.50876 9.73321,0 0,19.44244 c -2e-5,1.51832 0.24371,2.5292 0.73119,3.03263 0.48744,0.50345 1.45037,0.75518 2.88879,0.75517 l 0.50344,0 0,9.49347 -2.58912,0 c -3.54808,0 -6.31301,-1.03485 -8.2948,-3.10456 -1.98181,-2.0697 -2.97271,-4.94251 -2.97271,-8.61844 z"
             style="font-size:49.09754562px;font-style:normal;font-variant:normal;font-weight:normal;font-stretch:normal;text-align:center;line-height:125%;letter-spacing:0px;word-spacing:0px;text-anchor:middle;fill:#2ad4ff;fill-opacity:1;stroke:none;font-family:Bauhaus 93;-inkscape-font-specification:Bauhaus 93"
             id="path3796"
             inkscape:connector-curvature="0" />
          <path
             d="m 327.86594,376.26641 0,9.27771 c -0.7352,0.12786 -1.40645,0.19179 -2.01377,0.19179 -3.59602,0 -6.59269,-1.18269 -8.99003,-3.54807 -2.39734,-2.36537 -3.59601,-5.33008 -3.59601,-8.89413 0,-3.46814 1.21066,-6.40888 3.63197,-8.82222 2.42131,-2.4133 5.36604,-3.61996 8.83421,-3.61998 3.86769,2e-5 6.9163,1.13077 9.14585,3.39224 2.2295,2.26151 3.34427,5.35008 3.34429,9.26572 l 0,11.723 -8.96605,0 0,-11.07572 c -2e-5,-1.26259 -0.30768,-2.26947 -0.92298,-3.02065 -0.61533,-0.75115 -1.44241,-1.12673 -2.48125,-1.12675 -0.94296,2e-5 -1.75806,0.34363 -2.44528,1.03086 -0.68725,0.68725 -1.03087,1.50234 -1.03086,2.44529 -1e-5,0.99091 0.31164,1.806 0.93496,2.44528 0.6233,0.6393 1.41442,0.95895 2.37337,0.95894 0.78312,10e-6 1.51031,-0.20776 2.18158,-0.62331 z"
             style="font-size:49.09754562px;font-style:normal;font-variant:normal;font-weight:normal;font-stretch:normal;text-align:center;line-height:125%;letter-spacing:0px;word-spacing:0px;text-anchor:middle;fill:#2ad4ff;fill-opacity:1;stroke:none;font-family:Bauhaus 93;-inkscape-font-specification:Bauhaus 93"
             id="path3798"
             inkscape:connector-curvature="0" />
          <path
             d="m 364.76102,385.23247 -8.96605,0 0,-13.49703 c -2e-5,-1.37446 -0.56739,-2.0617 -1.70212,-2.06172 -1.11877,2e-5 -1.67815,0.68726 -1.67814,2.06172 l 0,13.49703 -8.96605,0 0,-13.32922 c 0,-3.11653 1.03085,-5.74161 3.09257,-7.87527 2.0617,-2.13361 4.5869,-3.20042 7.5756,-3.20045 3.42019,3e-5 6.16114,1.23865 8.22288,3.71588 1.61418,1.93388 2.42129,4.62689 2.42131,8.07904 z"
             style="font-size:49.09754562px;font-style:normal;font-variant:normal;font-weight:normal;font-stretch:normal;text-align:center;line-height:125%;letter-spacing:0px;word-spacing:0px;text-anchor:middle;fill:#2ad4ff;fill-opacity:1;stroke:none;font-family:Bauhaus 93;-inkscape-font-specification:Bauhaus 93"
             id="path3800"
             inkscape:connector-curvature="0" />
          <path
             d="m 384.73087,352.50876 8.96606,0 0,19.92191 c -3e-5,3.65995 -0.95896,6.64064 -2.87681,8.94208 -1.1028,1.32653 -2.50524,2.38136 -4.20734,3.16449 -1.70213,0.78313 -3.44819,1.17469 -5.23819,1.17469 -3.56405,0 -6.56872,-1.19866 -9.014,-3.59601 -2.44529,-2.39733 -3.66793,-5.33807 -3.66793,-8.82221 0,-3.37225 1.21465,-6.28901 3.64396,-8.7503 2.4293,-2.46124 5.3061,-3.69188 8.63043,-3.6919 0.5274,2e-5 1.32651,0.048 2.39734,0.14384 l 0,9.87704 c -0.7352,-0.57534 -1.47039,-0.86302 -2.20556,-0.86304 -0.92698,2e-5 -1.7221,0.33964 -2.38535,1.01887 -0.66328,0.67926 -0.99491,1.49835 -0.9949,2.45728 -10e-6,0.92698 0.34361,1.7221 1.03086,2.38535 0.68722,0.66327 1.51031,0.9949 2.46926,0.9949 2.30143,0 3.45215,-1.59023 3.45217,-4.77071 z"
             style="font-size:49.09754562px;font-style:normal;font-variant:normal;font-weight:normal;font-stretch:normal;text-align:center;line-height:125%;letter-spacing:0px;word-spacing:0px;text-anchor:middle;fill:#2ad4ff;fill-opacity:1;stroke:none;font-family:Bauhaus 93;-inkscape-font-specification:Bauhaus 93"
             id="path3802"
             inkscape:connector-curvature="0" />
          <path
             d="m 421.88965,374.73211 -13.59292,0 c -0.20778,-0.68722 -0.31167,-1.31852 -0.31165,-1.8939 -2e-5,-0.7991 0.14382,-1.58223 0.43152,-2.34939 l 4.55494,0 c -0.31966,-1.77402 -1.31855,-2.66103 -2.99667,-2.66105 -1.11877,2e-5 -2.02976,0.47549 -2.73297,1.42642 -0.70323,0.95096 -1.05484,2.16961 -1.05483,3.65594 -1e-5,1.55029 0.33961,2.8049 1.01887,3.76383 0.67923,0.95894 1.57024,1.43841 2.67303,1.4384 0.895,10e-6 1.75804,-0.44749 2.58913,-1.34251 l 5.10634,6.1372 c -2.38138,1.86992 -5.02644,2.80488 -7.9352,2.80488 -3.54807,0 -6.52877,-1.19067 -8.94208,-3.57203 -2.41333,-2.38136 -3.61999,-5.33008 -3.61999,-8.84619 0,-3.5001 1.21865,-6.45682 3.65595,-8.87016 2.43729,-2.4133 5.42997,-3.61996 8.97804,-3.61999 3.46814,3e-5 6.3809,1.17872 8.73831,3.53608 2.35736,2.3574 3.53605,5.26218 3.53608,8.71433 -3e-5,0.35163 -0.032,0.911 -0.0959,1.67814 z"
             style="font-size:49.09754562px;font-style:normal;font-variant:normal;font-weight:normal;font-stretch:normal;text-align:center;line-height:125%;letter-spacing:0px;word-spacing:0px;text-anchor:middle;fill:#2ad4ff;fill-opacity:1;stroke:none;font-family:Bauhaus 93;-inkscape-font-specification:Bauhaus 93"
             id="path3804"
             inkscape:connector-curvature="0" />
          <path
             d="m 438.74296,361.09124 0,9.58937 c -0.62332,-0.3516 -1.19069,-0.5274 -1.70211,-0.52742 -1.6302,2e-5 -2.4453,1.24663 -2.44529,3.73985 l 0,11.33943 -8.96605,0 0,-13.06551 c -10e-6,-3.45216 0.94295,-6.2051 2.82886,-8.25884 1.8859,-2.0537 4.40311,-3.08056 7.55162,-3.08059 0.70321,3e-5 1.6142,0.0879 2.73297,0.26371 z"
             style="font-size:49.09754562px;font-style:normal;font-variant:normal;font-weight:normal;font-stretch:normal;text-align:center;line-height:125%;letter-spacing:0px;word-spacing:0px;text-anchor:middle;fill:#2ad4ff;fill-opacity:1;stroke:none;font-family:Bauhaus 93;-inkscape-font-specification:Bauhaus 93"
             id="path3806"
             inkscape:connector-curvature="0" />
        </g>
      </g>
      <text
         sodipodi:linespacing="125%"
         id="text2989"
         y="448.14175"
         x="315.00955"
         style="font-size:18.04891968px;font-style:normal;font-variant:normal;font-weight:normal;font-stretch:normal;line-height:125%;letter-spacing:0px;word-spacing:0px;fill:#87cdde;fill-opacity:1;stroke:none;font-family:Bauhaus 93;-inkscape-font-specification:Bauhaus 93"
         xml:space="preserve"><tspan
           y="448.14175"
           x="315.00955"
           id="tspan2991"
           sodipodi:role="line">Go and boldly crash where </tspan><tspan
           id="tspan2993"
           y="470.70291"
           x="315.00955"
           sodipodi:role="line">nobody has landed before!</tspan></text>
      <path
         inkscape:connector-curvature="0"
         id="path2999"
         d="m 430.2207,445.23851 c 47.43318,-5.51184 47.43318,-5.51184 47.43318,-5.51184 l 0,0"
         style="fill:none;stroke:#c60000;stroke-width:1.94399393;stroke-linecap:butt;stroke-linejoin:miter;stroke-miterlimit:4;stroke-opacity:1;stroke-dasharray:none" />
      <text
         transform="matrix(0.98260177,-0.18572496,0.18572496,0.98260177,0,0)"
         sodipodi:linespacing="125%"
         id="text3864"
         y="508.832"
         x="343.56387"
         style="font-size:23.99435997px;font-style:normal;font-variant:normal;font-weight:normal;font-stretch:normal;line-height:125%;letter-spacing:0px;word-spacing:0px;fill:#b11818;fill-opacity:1;stroke:none;font-family:Matura MT Script Capitals;-inkscape-font-specification:Matura MT Script Capitals"
         xml:space="preserve"><tspan
           y="508.832"
           x="343.56387"
           id="tspan3866"
           sodipodi:role="line">land</tspan></text>
    </g>
  </g>
</svg>
